/* XPM */
static char *ghostbsd_irc[] = {
/* columns rows colors chars-per-pixel */
"32 32 192 2 ",
"   c #223B62",
".  c #25416B",
"X  c #2D4568",
"o  c #284570",
"O  c #294673",
"+  c #324B71",
"@  c #30507F",
"#  c #465975",
"$  c #475D7E",
"%  c #4E5F79",
"&  c #53637C",
"*  c #6D6D6D",
"=  c #6F6F6F",
"-  c gray44",
";  c #717171",
":  c gray45",
">  c #747474",
",  c gray46",
"<  c #767676",
"1  c #777777",
"2  c gray47",
"3  c #797979",
"4  c gray48",
"5  c #7B7B7B",
"6  c #7C7C7C",
"7  c gray50",
"8  c #FF6600",
"9  c #FF6701",
"0  c #FF6804",
"q  c #FF6905",
"w  c #FF6A07",
"e  c #FE6B09",
"r  c #FE7B23",
"t  c #FB8E45",
"y  c #FC8E44",
"u  c #FC9048",
"i  c #FA924C",
"p  c #FC924C",
"a  c #FA9C5D",
"s  c #F7A56F",
"d  c #FBA46A",
"f  c #F8A56E",
"g  c #F7A874",
"h  c #3A5C91",
"j  c #3C5E93",
"k  c #3C5F94",
"l  c #3D6095",
"z  c #5A6A82",
"x  c #506A8F",
"c  c #5E6E88",
"v  c #4F6A93",
"b  c #41659C",
"n  c #4A6A9B",
"m  c #64738A",
"M  c #6A788E",
"N  c #6C7A8F",
"B  c #657B9B",
"V  c #727F94",
"C  c #4469A1",
"Z  c #466CA7",
"A  c #4D6FA1",
"S  c #4970AB",
"D  c #4E74AD",
"F  c #5176AD",
"G  c #4E77B5",
"H  c #5077B2",
"J  c #587DB7",
"K  c #738298",
"L  c #7B879A",
"P  c #7D8A9C",
"I  c #6E85A9",
"U  c #818181",
"Y  c #888888",
"T  c gray54",
"R  c #8B8B8B",
"E  c #8E8E8E",
"W  c gray56",
"Q  c #808C9E",
"!  c #828E9F",
"~  c #909090",
"^  c gray57",
"/  c #929292",
"(  c #939393",
")  c #989898",
"_  c #8590A2",
"`  c #8E98A7",
"'  c #8B96A8",
"]  c #8495B0",
"[  c #8699B7",
"{  c #9EA7B4",
"}  c #9AA7BC",
"|  c #9AA8BD",
" . c gray64",
".. c gray65",
"X. c #A9A9A9",
"o. c #AEAEAE",
"O. c #A1AAB7",
"+. c #A3ABB8",
"@. c #ACB3BD",
"#. c #ACB3BE",
"$. c #B2B2B2",
"%. c gray70",
"&. c gray73",
"*. c #F5B286",
"=. c #F5B88F",
"-. c #F4B890",
";. c #F5B991",
":. c #F8C19D",
">. c #F4C2A1",
",. c #F6C8A9",
"<. c #F4CCB2",
"1. c #F8D1B7",
"2. c #F2D2BD",
"3. c #ABB4C1",
"4. c #AFB6C2",
"5. c #B7BDC6",
"6. c #B8BEC7",
"7. c #B4BCC8",
"8. c #B9C0CA",
"9. c #BEC4CC",
"0. c gray77",
"q. c gray79",
"w. c #CBCBCB",
"e. c gray80",
"r. c gray81",
"t. c #C3C8D0",
"y. c #CDD1D7",
"u. c #CED2D7",
"i. c #D0D0D0",
"p. c #D2D2D2",
"a. c #D0D3D8",
"s. c #D1D4DA",
"d. c #D4D7DB",
"f. c #D7DADD",
"g. c #D6D9DF",
"h. c #D8D8D8",
"j. c gray85",
"k. c #D9DBDE",
"l. c #D9DCDF",
"z. c #EFD4C2",
"x. c #F4D5C1",
"c. c #F5D6C2",
"v. c #F2D8C7",
"b. c #F2DACA",
"n. c #F5DDCD",
"m. c #EFE1D7",
"M. c #EFE4DD",
"N. c #D9DCE0",
"B. c #DADCE0",
"V. c #DBDEE1",
"C. c #DEE0E2",
"Z. c #DFE1E3",
"A. c #E1E1E1",
"S. c #E2E2E2",
"D. c gray89",
"F. c #E0E2E4",
"G. c #E2E4E6",
"H. c #E4E4E4",
"J. c gray90",
"K. c #E4E5E7",
"L. c #E6E6E6",
"P. c #E7E7E7",
"I. c #E2E4E8",
"U. c #E3E5E8",
"Y. c #E5E6E8",
"T. c #E5E7E9",
"R. c #E9E9E9",
"E. c #E9EAEB",
"W. c #EAEAEA",
"Q. c #EAEAEB",
"!. c gray92",
"~. c #EAEBEC",
"^. c #EBEBEC",
"/. c #ECECEC",
"(. c gray93",
"). c #EEEEEE",
"_. c #EEEEEF",
"`. c #EFEFEF",
"'. c #F2E8E2",
"]. c #F1ECE8",
"[. c #F1F0EF",
"{. c #EFF0F0",
"}. c gray94",
"|. c #F1F1F1",
" X c gray95",
".X c #F3F3F3",
"XX c #F4F4F4",
"oX c gray96",
"OX c #F6F6F6",
"+X c gray97",
"@X c #F8F8F8",
"#X c None",
/* pixels */
"#X#X#X#X#X#X#X#X#X#X#X#X#X#X#X1 4 4 4 4 4 4 2 4 2 4 4 4 4 4 2 #X",
"#X#X#X#X#X#X#X#X#X#X#X#X#X#X2 Y q.i.r.r.r.r.r.r.r.r.r.r.r.q./ 2 ",
"#X#X#X#X#X#X#X#X#X#X#X#X#X#X4 q.@X@XXXXX+X+Xg.I.XXXXXX.X X Xh.2 ",
"#X#X#X#X#X#X#X#X#X#X#X#X#X#X2 h.XX@XXXXXXX9.C A E. X X X X).S.4 ",
"#X#X#X#X#X#X#X#X#X#X#X#X#X#X2 h.@XXXXXXXXXt.. + E. X X X).{.S.4 ",
"#X#X#X#X#X#X#X#X#X#X#X#X#X#X2 h.@XXXXXt.[ N.y.N.B F 6.).).).S.2 ",
"#X#X#X#X#X#X#X#X#X#X#X#X#X#X2 h.XXXXXXc Z '  XN.O b K ).).).A.2 ",
"#X#X#X#X#X#X#X#X#X#X#X#X#X#X2 h.@XY.N.t.K l.5.s.P % +.I } ^.A.4 ",
"#X#X4 1 4 2 2 4 1 4 1 2 2 2 2 o.).x D T. X{ S n {.{.$ G k s.S.3 ",
"#X4 / / ( ( / ( / ( ( / ( / ( U W _ m {. X5.  # E.Y.z . X V.M.3 ",
"4 q. X XXX.X.XXX X X X X X X X).6 h. XO.J 3.C.G.v H 4.@.g.E.N.4 ",
"4 S.XXXXXXXXXXXXXXXXXX.X X X XF./ i. XL @ ! {.y.O h P !.!.E.S.2 ",
"1 S.@XXXXXXXXXXXXXXX.X.X X X XS./ r. XE.6.K.] | ` N l.!.E.!.M.< ",
"4 S.XXXX@X1.d u u a x. X X X XF./ r. X[.{.#.j l l.!.!.!.E.E.C.2 ",
"4 S.XXXXXXr 9 9 9 9 w x.). X{.S.( i.{.).[.S.& M !.!.!.!.E.E.C.2 ",
"1 S.XXXXXXp :.n.,.9 9 f ].{.).S./ i.XX.X.X.X.X X X[.E.{.{. Xh.2 ",
"2 S.XXXXXXXXXXXX'.9 9 g {.{.).S./  .$.$.$.%.%.$.%.E.E.K.%.$.T > ",
"4 F.XXXX XXXXX].t 9 e v.!.).!.S./ 1 - - - = - = - ) E.S.2 = = #X",
"2 S.XXXX{.XX].i 9 w :._.).!.!.C./ #X#X#X#X#X#X#X#X1 .. X4 #X#X#X",
"4 S.XX X X{.<.9 9 *.).).).!.!.C./ #X#X#X#X#X#X#X#X#X1 T 7 #X#X#X",
"2 S. X`. X`.b.=.-.M./.!.!.!.E.C./ #X#X#X#X#X#X#X#X#X#X1 2 1 #X#X",
"4 S. X X`.{.2.s s m./.!.!.E.R.M./ #X#X#X#X#X#X#X#X#X#X#X#X1 1 #X",
"2 S.`.`.{.).=.9 9 z.!.!.!.E.U.M./ #X#X#X#X#X#X#X#X#X#X#X#X#X#X#X",
"2 S. X`.).).=.9 9 z.E.E.E.T.T.S.W #X#X#X#X#X#X#X#X#X#X#X#X#X#X#X",
", &.).).).).].{.).E.).).!.).).K.4 #X#X#X#X#X#X#X#X#X#X#X#X#X#X#X",
"#X2 1 4 K.E.X.2 4 4 2 2 2 2 1 4 - #X#X#X#X#X#X#X#X#X#X#X#X#X#X#X",
"#X#X#X4 XXh.2 #X#X#X#X#X#X#X#X#X#X#X#X#X#X#X#X#X#X#X#X#X#X#X#X#X",
"#X#X#XR 0.6 #X#X#X#X#X#X#X#X#X#X#X#X#X#X#X#X#X#X#X#X#X#X#X#X#X#X",
"#X#X1 4 4 #X#X#X#X#X#X#X#X#X#X#X#X#X#X#X#X#X#X#X#X#X#X#X#X#X#X#X",
"#X#X2 4 #X#X#X#X#X#X#X#X#X#X#X#X#X#X#X#X#X#X#X#X#X#X#X#X#X#X#X#X",
"#X4 #X#X#X#X#X#X#X#X#X#X#X#X#X#X#X#X#X#X#X#X#X#X#X#X#X#X#X#X#X#X",
"#X#X#X#X#X#X#X#X#X#X#X#X#X#X#X#X#X#X#X#X#X#X#X#X#X#X#X#X#X#X#X#X"
};
