/* XPM */
static char *ghostbsd_irc[] = {
/* columns rows colors chars-per-pixel */
"32 32 144 2 ",
"   c #6D6D6D",
".  c #6F6F6F",
"X  c gray44",
"o  c #717171",
"O  c gray45",
"+  c #747474",
"@  c gray46",
"#  c #767676",
"$  c #777777",
"%  c gray47",
"&  c #797979",
"*  c gray48",
"=  c #7B7B7B",
"-  c #7C7C7C",
";  c gray50",
":  c #FF6600",
">  c #FF6803",
",  c #FF6804",
"<  c #FE6D0D",
"1  c #FD7A23",
"2  c #FB8E46",
"3  c #FB924C",
"4  c #FC934D",
"5  c #F99553",
"6  c #FC9856",
"7  c #FB9A5A",
"8  c #FB9B5B",
"9  c #F8A66F",
"0  c #FAA770",
"q  c #FAA973",
"w  c #F8AA76",
"e  c #F6AF7F",
"r  c #040482",
"t  c #070783",
"y  c #080884",
"u  c #0B0B85",
"i  c #121288",
"p  c #19198C",
"a  c #1F1F8E",
"s  c #2A2A93",
"d  c #2D2D95",
"f  c #343498",
"g  c #3E3E9D",
"h  c #4E4EA4",
"j  c #5454A7",
"k  c #5757A9",
"l  c #5A5AAB",
"z  c #5F5FAC",
"x  c #6A6AB1",
"c  c #7272B6",
"v  c #7F7FBC",
"b  c #818181",
"n  c #888888",
"m  c gray54",
"M  c #8B8B8B",
"N  c #8E8E8E",
"B  c gray56",
"V  c #909090",
"C  c gray57",
"Z  c #929292",
"A  c #939393",
"S  c #989898",
"D  c #8585BE",
"F  c gray64",
"G  c gray65",
"H  c #A9A9A9",
"J  c #AEAEAE",
"K  c #B2B2B2",
"L  c gray70",
"P  c gray73",
"I  c #F7B080",
"U  c #F7B487",
"Y  c #FAB486",
"T  c #F3BE9A",
"R  c #F4C09D",
"E  c #F6CAAD",
"W  c #F5CCB1",
"Q  c #F7CFB4",
"!  c #F2D0BA",
"~  c #F3D1BB",
"^  c #9191C4",
"/  c #A0A0CB",
"(  c #B3B3D3",
")  c #BBBBD7",
"_  c gray77",
"`  c gray79",
"'  c #CBCBCB",
"]  c gray80",
"[  c gray81",
"{  c #C5C5DD",
"}  c #C7C7DD",
"|  c #C8C8DF",
" . c #D0D0D0",
".. c #D2D2D2",
"X. c #D8D8D8",
"o. c gray85",
"O. c #F1D7C6",
"+. c #F1D8C8",
"@. c #F5DCCC",
"#. c #EDE3DC",
"$. c #F6E0D2",
"%. c #F1E1D7",
"&. c #F1E2D8",
"*. c #D3D3E1",
"=. c #D2D2E2",
"-. c #D8D8E5",
";. c #D9D9E7",
":. c #E1E1E1",
">. c #E2E2E2",
",. c gray89",
"<. c #E4E4E4",
"1. c gray90",
"2. c #E6E6E6",
"3. c #E7E7E7",
"4. c #EBE7E5",
"5. c #E1E1E8",
"6. c #E4E4EC",
"7. c #E9E9E9",
"8. c #EAEAEA",
"9. c gray92",
"0. c #EDEBE9",
"q. c #E8E8ED",
"w. c #EBEBED",
"e. c #EAEAEF",
"r. c #EBEBEF",
"t. c #ECECEC",
"y. c gray93",
"u. c #EDEDEE",
"i. c #EEEEEE",
"p. c #EFEFEF",
"a. c #F2E7E0",
"s. c #ECECF0",
"d. c gray94",
"f. c #F1F1F1",
"g. c #F0F0F2",
"h. c gray95",
"j. c #F3F3F3",
"k. c #F4F3F2",
"l. c #F4F4F4",
"z. c gray96",
"x. c #F6F6F6",
"c. c gray97",
"v. c #F8F8F8",
"b. c None",
/* pixels */
"b.b.b.b.b.b.b.b.b.b.b.b.b.b.b.$ * * * * * * * * $ * * * * * $ b.",
"b.b.b.b.b.b.b.b.b.b.b.b.b.b.$ n `  .[ [  . .[ [ [ [ [  .[ ` Z $ ",
"b.b.b.b.b.b.b.b.b.b.b.b.b.b.* ` v.v.l.v.v.v.l.l.l.l.l.h.l.l.X.* ",
"b.b.b.b.b.b.b.b.b.b.b.b.b.b.$ X.l.l.l.l.l.;.| s.h.h.h.h.h.h.o.* ",
"b.b.b.b.b.b.b.b.b.b.b.b.b.b.$ X.v.l.l.c.l p k i c p.h.p.p.p.o.- ",
"b.b.b.b.b.b.b.b.b.b.b.b.b.b.* X.v.l.l.h.y D l.{ r ^ p.p.p.p.>.* ",
"b.b.b.b.b.b.b.b.b.b.b.b.b.b.$ X.l.l.l.l.6.s.h.h.d h p.p.p.p.>.* ",
"b.b.b.b.b.b.b.b.b.b.b.b.b.b.* X.v.l.l.l.h.h.h.s.a z p.p.p.h.o.* ",
"b.b.* $ * * $ * % * % % * $ $ J t.l.l.l.f.j.f./ t { t.p.t.p.#.# ",
"b.* Z Z A A Z Z Z Z Z Z A Z A b V d.j.f.j.q.x s ) d.p.p.t.t.:.% ",
"* ` h.h.l.h.h.h.h.h.h.h.h.h.d.p.- o.f.j.d.=.f t.d.p.t.t.9.e.:.% ",
"* >.l.l.l.l.l.l.l.l.l.l.h.h.h.,.V  .j.f.f.=.g d.p.t.p.9.t.e.:.% ",
"$ >.v.l.l.$.Y 8 6 q @.j.h.h.h.>.Z  .d.d.d.t.-.y.y.y.t.t.9.8.:.& ",
"* >.l.l.l.4 : : : : , W h.h.p.>.Z  .f.d.p.( j 5.y.t.t.9.8.8.:.& ",
"* >.l.l.v.8 0 Q E < : 3 p.h.p.>.Z  .d.d.p.D t *.t.t.9.9.8.8.:.% ",
"$ >.l.l.l.l.l.l.h.1 : 2 p.p.p.>.Z ..l.l.l.l.e.j.f.p.9.p.p.f.o.$ ",
"* ,.l.l.l.h.h.h.w : : T p.p.9.>.Z F L L L L L L L 3.9.<.K K m $ ",
"* <.l.l.l.k.h.U : : 9 p.p.9.p.>.Z O X X X . . . O S 9.>.$ .   b.",
"* >.l.h.h.h.a., : 5 p.9.9.p.9.>.A b.b.b.b.b.b.b.b.$ G h.* b.b.b.",
"* >.h.h.h.h.&.I I O.p.p.9.9.9.>.A b.b.b.b.b.b.b.b.b.$ m - b.b.b.",
"% >.h.s.p.p.%.e e +.p.9.9.9.9.>.Z b.b.b.b.b.b.b.b.b.b.$ * $ b.b.",
"* >.h.h.p.p.~ : : T 9.9.9.9.<.>.Z b.b.b.b.b.b.b.b.b.b.b.b.$ $ b.",
"% >.h.p.p.p.! : : T 9.9.9.9.9.>.Z b.b.b.b.b.b.b.b.b.b.b.b.b.b.b.",
"$ >.d.p.p.p.9.#.#.4.9.9.9.<.9.>.N b.b.b.b.b.b.b.b.b.b.b.b.b.b.b.",
"$ P p.p.p.p.p.p.p.9.p.p.9.p.p.>.* b.b.b.b.b.b.b.b.b.b.b.b.b.b.b.",
"b.$ $ * >.9.H $ * * $ $ $ $ $ * X b.b.b.b.b.b.b.b.b.b.b.b.b.b.b.",
"b.b.b.* l.X.$ b.b.b.b.b.b.b.b.b.b.b.b.b.b.b.b.b.b.b.b.b.b.b.b.b.",
"b.b.b.m _ - b.b.b.b.b.b.b.b.b.b.b.b.b.b.b.b.b.b.b.b.b.b.b.b.b.b.",
"b.b.$ * * b.b.b.b.b.b.b.b.b.b.b.b.b.b.b.b.b.b.b.b.b.b.b.b.b.b.b.",
"b.b.$ * b.b.b.b.b.b.b.b.b.b.b.b.b.b.b.b.b.b.b.b.b.b.b.b.b.b.b.b.",
"b.* b.b.b.b.b.b.b.b.b.b.b.b.b.b.b.b.b.b.b.b.b.b.b.b.b.b.b.b.b.b.",
"b.b.b.b.b.b.b.b.b.b.b.b.b.b.b.b.b.b.b.b.b.b.b.b.b.b.b.b.b.b.b.b."
};
