/* XPM */
static char *ghostbsd_irc_16[] = {
/* columns rows colors chars-per-pixel */
"16 16 93 2 ",
"   c #797979",
".  c #7B7B7B",
"X  c gray50",
"o  c #FD7B24",
"O  c #F98F48",
"+  c #FB914A",
"@  c #FB934D",
"#  c #FA9551",
"$  c #FB9A5A",
"%  c #F79E62",
"&  c #F7AC7A",
"*  c #49648B",
"=  c #526888",
"-  c #5171A1",
";  c #5A7FB7",
":  c #7E96BA",
">  c #818181",
",  c #8D8D8D",
"<  c #8E8E8E",
"1  c gray57",
"2  c #939393",
"3  c gray58",
"4  c #989898",
"5  c #838FA0",
"6  c #8592A5",
"7  c #8693A7",
"8  c #9CA6B4",
"9  c #A2A2A2",
"0  c gray66",
"q  c #A9A9A9",
"w  c gray67",
"e  c gray68",
"r  c #AFAFAF",
"t  c #A6ACB4",
"y  c #A4ADB8",
"u  c #AEB5BF",
"i  c gray69",
"p  c #B2B2B2",
"a  c gray70",
"s  c #B4B4B4",
"d  c gray71",
"f  c #BBBBBB",
"g  c #F9BE96",
"h  c #F4C2A1",
"j  c #F7C6A6",
"k  c #F2C8AC",
"l  c #F8CAAB",
"z  c #82A1CF",
"x  c #98AAC5",
"c  c #A4B0C1",
"v  c #B5BBC4",
"b  c #BDC3CB",
"n  c gray76",
"m  c #C3C9D0",
"M  c #C5C9D1",
"N  c #C8CDD4",
"B  c #D2D6DB",
"V  c #D6D8DC",
"C  c #DDDDDD",
"Z  c #EFE2D9",
"A  c #DADCE0",
"S  c #DBDDE0",
"D  c #E1E1E1",
"F  c #E2E2E2",
"G  c gray89",
"H  c #E3E5E7",
"J  c #E4E4E4",
"K  c gray90",
"L  c #E6E6E6",
"P  c #E7E7E8",
"I  c #E8E9E9",
"U  c #E9E9E9",
"Y  c #E9E9EB",
"T  c #EAEAEA",
"R  c gray92",
"E  c #EAEBED",
"W  c #ECECEC",
"Q  c gray93",
"!  c #ECEDEE",
"~  c #EEEEEE",
"^  c #EEEFEF",
"/  c #EFEFEF",
"(  c #F6ECE5",
")  c #F4EDE9",
"_  c gray94",
"`  c #F1F1F1",
"'  c #F2F1F0",
"]  c gray95",
"[  c #F3F3F3",
"{  c #F3F3F4",
"}  c gray96",
"|  c #F6F6F6",
" . c None",
/* pixels */
" . . . . . . .< q q q q q q 0 < ",
" . . . . . . .w } } ! x ` { ` r ",
" . . . . . . .r } E N 5 c H ^ a ",
" . . . . . . .r } m 7 S = y S a ",
" .3 3 3 3 3 3 3 t 8 B - ^ * 6 a ",
"e ` ` ` ` ` _ K e M : P ; b I a ",
"a } ( l l ) ` K e / V z v P I a ",
"a } g $ o @ ) H e { E v / W Q r ",
"a } ` ' @ # ) D 3 4 4 4 w C 3 X ",
"a } ` & o Z ! D 1  . . . .9 >  .",
"a ` ` h k E W D 2  . . . . .   .",
"a ` Q O % E I D 1  . . . . . . .",
"< s K n s a a r  . . . . . . . .",
" .> f  . . . . . . . . . . . . .",
" .   . . . . . . . . . . . . . .",
" . . . . . . . . . . . . . . . ."
};
