/* XPM */
static char *ghostbsd_irc_16[] = {
/* columns rows colors chars-per-pixel */
"16 16 79 1 ",
"  c #797979",
". c #7B7B7B",
"X c gray50",
"o c #FD781F",
"O c #FD7B25",
"+ c #FD8433",
"@ c #FD893C",
"# c #F8A167",
"$ c #F9A56D",
"% c #F6AA78",
"& c #F7AD7C",
"* c #3F3F9D",
"= c #3F3F9E",
"- c #7C7CBA",
"; c #818181",
": c #8D8D8D",
"> c #8E8E8E",
", c gray57",
"< c #939393",
"1 c gray58",
"2 c #989898",
"3 c #8484BE",
"4 c #A2A2A2",
"5 c gray66",
"6 c #A9A9A9",
"7 c gray67",
"8 c gray68",
"9 c #AFAFAF",
"0 c gray69",
"q c #B2B2B2",
"w c gray70",
"e c #B4B4B4",
"r c gray71",
"t c #BBBBBB",
"y c #F6B284",
"u c #F6B88F",
"i c #F3BC98",
"p c #F7C09B",
"a c #F3C1A0",
"s c #F6D4BE",
"d c #8787C0",
"f c #9494C5",
"g c #A1A1CB",
"h c #ADADD1",
"j c gray76",
"k c #C2C2DA",
"l c #DDDDDD",
"z c gray87",
"x c #F7D7C1",
"c c #F7DECD",
"v c #F3E3D9",
"b c #D5D5E4",
"n c #E1E1E1",
"m c #E2E2E2",
"M c gray89",
"N c #E4E4E4",
"B c gray90",
"V c #E6E6E6",
"C c #E0E0E8",
"Z c #E1E1E9",
"A c #E9E9E9",
"S c #EAEAEA",
"D c gray92",
"F c #ECECEC",
"G c gray93",
"H c #EEEEEE",
"J c #EFEFEF",
"K c #EDEDF0",
"L c #ECECF1",
"P c gray94",
"I c #F0F0F1",
"U c #F1F1F1",
"Y c gray95",
"T c #F3F3F3",
"R c #F4F4F4",
"E c #F4F4F5",
"W c gray96",
"Q c #F6F6F6",
"! c None",
/* pixels */
"!!!!!!!:5555555:",
"!!!!!!!8WWWKWTKw",
"!!!!!!!8WW=d-UUw",
"!!!!!!!wWWKU=GGw",
"!1111111lWU3gGGe",
"8UUUUUUN8UZfGGGe",
"wWx@+pUN8UZkGFSw",
"wWcs$OUN8UbhGGG8",
"eWTvO&Gm12225l1;",
"eTUu#GGm<!!!!4;!",
"wUIy%DSm<!!!!! !",
"wIGpiDSm<!!!!!!!",
":eNjeew8!!!!!!!!",
"!;t!!!!!!!!!!!!!",
"!.!!!!!!!!!!!!!!",
"!!!!!!!!!!!!!!!!"
};
